<svg xmlns="http://www.w3.org/2000/svg" viewBox="0 0 1024 768"><defs><style>.cls-1{fill:#fff;}</style></defs><title>cloud</title><g id="レイヤー_2" data-name="レイヤー 2"><g id="レイヤー_1-2" data-name="レイヤー 1"><polygon class="cls-1" points="515.782 306.466 515.782 307.861 538.853 307.861 538.935 302.804 515.782 302.804 515.782 306.466"/><polygon class="cls-1" points="515.865 316.407 538.771 316.407 538.853 311.35 515.782 311.35 515.865 316.407"/><path class="cls-1" d="M487.355,394.486c-.165,2.442-.165,9.767-.165,11.511v5.668h20.022c0-5.755.083-13.6.083-17.527H488.838A9.171,9.171,0,0,1,487.355,394.486Z"/><path class="cls-1" d="M0,0V768H1024V0ZM474.253,372.946c0-1.307.742-1.744,1.813-1.744h18.21V356.465a129.186,129.186,0,0,1-16.067,1.482c-2.308.088-2.8-2.7-.248-3.138,12.031-1.832,22.578-4.622,29.911-8.546,1.895-1.134,2.224-1.134,3.873.261a21.158,21.158,0,0,1,3.79,4.622c.988,1.831-.576,2.964-3.626,1.308a91.706,91.706,0,0,1-12.112,2.965c.989.349,1.648.784,1.648,1.4,0,.872-.577,1.395-1.648,1.832V371.2h8.734c1.73-2.7,3.873-5.755,5.109-5.755,1.648,0,7.25,5.233,7.333,7.326,0,1.22-1.565,1.918-4.285,1.918H499.8V390.65h5.933c1.153-1.745,2.8-3.664,3.707-3.664,1.649,0,6.51,3.75,6.51,5.669,0,1.133-1.319,1.918-2.8,2.529-.164,6.1.083,19.446.083,22.586,0,2.7-1.319,3.313-3.626,3.313-1.895,0-2.472-1.569-2.472-2.965v-2.965H487.273v4.709c0,1.831-1.319,2.7-3.791,2.7a2.062,2.062,0,0,1-2.225-2.355c0-6.1.5-23.2-.329-31.306a1.009,1.009,0,0,1,1.154-1.133,21.4,21.4,0,0,1,6.756,2.878h5.438V374.691h-18.21C475,374.691,474.253,374.342,474.253,372.946ZM523.775,349.4c-.165-1.22.082-1.656,1.482-1.656,6.51,0,9.229.959,9.229,2.7.082,1.745-2.06,2.617-4.119,2.965-.248,4.012-.248,52.236-.248,56.072,0,4.011.577,4.709,7.169,4.709,6.508,0,7.333-1.133,8.075-3.4.659-2.093,1.4-5.232,1.73-6.8.494-1.918,2.06-1.831,2.143.087.082,1.4.164,4.012.246,6.018.165,2.79,1.73,3.052,1.73,4.8,0,1.831-2.142,5.232-13.759,5.232s-13.1-2.529-13.1-8.894C524.351,407.567,524.928,358.907,523.775,349.4Zm23.235-14.419c-1.977.785-3.543-.785-5.932-3.139a45.727,45.727,0,0,0-5.356-4.535c-1.4-1.046-1.236-2.878.906-2.965,5.192,0,10.794,1.919,12.278,5.843C549.647,332.278,548.988,334.2,547.01,334.982Zm-2.306-39.59c-.247,6.191.082,21.539.082,24.852,0,2.7-1.319,3.314-3.543,3.314-1.9,0-2.472-1.57-2.472-2.965v-.7H515.865v.61c0,1.919-1.237,2.791-3.544,2.791-1.4,0-2.06-.872-2.06-2.442,0-6.105.494-23.545-.329-31.743a.92.92,0,0,1,1.154-1.045,17.381,17.381,0,0,1,6.343,2.79H537.7c1.071-1.57,2.471-3.14,3.3-3.14,1.482,0,6.1,3.576,6.1,5.407C547.093,294.083,545.939,294.78,544.7,295.392Zm-29.581,27.643c.577-.7,1.154-.7,1.977-.175,2.555,1.745,5.851,4.8,5.439,6.454-.412,1.395-2.719.872-4.78,0a41.234,41.234,0,0,1-17.468,6.453c-2.06.261-2.8-2.006-.742-2.965C506.553,330.186,511.168,327.569,515.123,323.035ZM502.186,306.2c-1.977-.087-2.637-2-3.79-4.621a44.554,44.554,0,0,0-2.554-5.319c-.824-1.484-.083-2.966,1.9-2.181,4.12,1.483,8.322,4.8,8.075,8.634C505.73,304.984,504.329,306.379,502.186,306.2ZM545.445,489.15H511.827c0,1.22-1.648,1.657-3.461,1.831a86.011,86.011,0,0,1-7.168,9.941A201.867,201.867,0,0,0,530.119,499a65.419,65.419,0,0,0-5.026-4.447c-1.236-.96-.577-2.965,1.4-2.53,10.465,2.355,15.655,9.332,16.479,12.907.659,2.79-.5,4.622-2.637,5.144-1.647.524-2.636-.348-3.873-2.179-.988-1.483-2.059-3.663-3.708-5.843-10.876,2.878-25.79,4.622-44.329,5.319-.742,1.919-1.73,3.575-3.131,3.315-1.73-.35-2.39-4.536-2.307-9.331.082-.786.412-.959,1.071-.959,4.2.26,8.157.435,11.865.435a43.488,43.488,0,0,0,5.768-11.685H476.808c-1.071,0-1.813-.349-1.813-1.745,0-1.307.742-1.744,1.813-1.744h60.727c1.648-2.528,3.791-5.406,4.943-5.406,1.566,0,7.334,4.971,7.334,6.977C549.812,488.452,548.576,489.15,545.445,489.15Zm-48.7-23.545c1.318-2.093,2.884-4.186,3.873-4.186,1.318,0,5.932,4.36,5.932,6.017,0,1.22-1.236,1.657-3.46,1.657H486.86c-1.071,0-1.813-.349-1.813-1.744,0-1.308.742-1.744,1.813-1.744Zm-9.641-7.5c0-1.309.742-1.745,1.813-1.745h7.5c1.4-2.093,2.883-4.186,3.872-4.186,1.318,0,5.933,4.36,6.015,6.018,0,1.22-1.318,1.656-3.543,1.656H488.92C487.849,459.849,487.107,459.5,487.107,458.106Zm41.446,17.44c1.649-2.529,3.708-5.319,4.863-5.319,1.564,0,7.168,4.97,7.168,6.976,0,1.133-1.237,1.831-4.286,1.831h-51.91c-1.071,0-1.812-.348-1.812-1.744,0-1.308.741-1.744,1.812-1.744Zm-8.981-9.941h9.889c1.4-2.18,3.047-4.448,4.037-4.448,1.4,0,6.179,4.448,6.179,6.279,0,1.133-1.318,1.657-3.625,1.657h-16.48c-1.07,0-1.813-.349-1.813-1.744C517.759,466.041,518.5,465.605,519.572,465.605Zm-1.813-7.5c0-1.309.743-1.745,1.813-1.745h7.5c1.4-2.093,2.967-4.36,3.955-4.36,1.4,0,6.1,4.447,6.1,6.192,0,1.133-1.319,1.656-3.543,1.656H519.572C518.5,459.849,517.759,459.5,517.759,458.106Zm29.746-4.884c-1.978,1.831-4.12,3.924-5.521,5.319-1.648,1.308-3.213.349-2.389-1.744.412-1.657,1.319-4.622,2.06-7.15H515.288v3.575c0,8.284.247,14.3.247,16.743,0,1.831-1.237,3.14-3.955,3.14-1.648,0-2.225-.96-2.225-2.617,0-2.791.247-8.633.247-17.266v-3.575H486.2a19.357,19.357,0,0,1-.082,2.179c-.659,5.93-4.367,9.331-8.158,9.331a2.96,2.96,0,0,1-3.048-3.139c0-3.227,4.037-3.837,6.015-7.674,1.236-2.006.906-4.709.989-7.238,0-2,2.224-2.355,2.966-.436a35.226,35.226,0,0,1,.906,3.488H509.6v-6.715H484.883c-1.071,0-1.813-.348-1.813-1.744,0-1.307.742-1.744,1.813-1.744h47.955c1.648-2.528,3.708-5.406,4.862-5.406,1.565,0,7.251,4.971,7.333,6.976,0,1.221-1.319,1.918-4.367,1.918h-22.66a1.685,1.685,0,0,1,.165.611c0,1.047-.906,1.744-2.883,2.093v4.011h26.284c1.154-1.22,2.39-2.267,3.132-2.267,1.565,0,6.591,5.319,6.591,7.325C551.295,452.96,549.318,452.96,547.505,453.222Zm0-167.161H505.894c-.906,0-1.483-.262-1.73-1.047a5.748,5.748,0,0,1-2.637.523h-7.416v13.255c0,19.621.412,30.522.412,34.01,0,1.831-1.4,3.14-3.955,3.14-1.565,0-2.225-.96-2.225-2.617,0-3.837.33-14.388.33-34.1-3.213,6.714-7.5,12.993-13.348,17.615-1.978,1.569-3.79-.175-2.143-2.094a69.418,69.418,0,0,0,14.173-29.213H476.643c-1.071,0-1.812-.348-1.812-1.744,0-1.308.741-1.744,1.812-1.744h12.03v-13.69a88.8,88.8,0,0,1-11.7,1.831c-2.39.173-2.967-2.268-.412-2.965,9.805-2.443,17.056-5.233,22.741-8.634,1.9-1.134,2.307-1.221,4.038.175a18.426,18.426,0,0,1,3.625,4.1c1.072,1.831-.659,2.878-3.625,1.4-1.731.7-4.2,1.394-6.921,2.18a1.237,1.237,0,0,1,.412.872c0,.959-.907,1.569-2.72,1.919v12.818h.412c1.483-2.441,3.379-5.058,4.367-5.058,1.319,0,4.862,3.75,5.768,5.843a2.618,2.618,0,0,1,1.236-.262h18.127v-5.581H510.014c-1.071,0-1.813-.348-1.813-1.744,0-1.307.742-1.744,1.813-1.744h14.007c0-1.744,0-3.575-.082-5.232H507.46c-1.071,0-1.813-.349-1.813-1.745,0-1.307.742-1.744,1.813-1.744h16.4c-.082-2.616-.165-4.8-.33-6.278a1.04,1.04,0,0,1,1.154-1.221c1.4,0,8.157.349,8.157,2.355,0,1.4-1.4,2.006-3.544,2.528v2.616h9.559c1.4-2.179,3.131-4.447,4.12-4.447,1.4,0,6.427,4.447,6.427,6.279,0,1.133-1.153,1.657-3.873,1.657H529.294V273.5h8.488c1.318-2.006,2.8-4.012,3.708-4.012,1.4,0,6.179,4.187,6.179,5.931,0,1.133-1.07,1.569-3.707,1.569H529.294v5.581H540.5c1.482-2.267,3.294-4.709,4.284-4.709,1.483,0,6.675,4.622,6.675,6.454C551.461,285.45,550.306,286.061,547.505,286.061Z"/><path class="cls-1" d="M515.947,294.432c-.082,1.047-.082,2.878-.165,4.884h23.153v-4.971H516.441Z"/></g></g></svg>