<svg xmlns="http://www.w3.org/2000/svg" viewBox="0 0 1000 1000"><defs><style>.cls-1{fill:#fff;}</style></defs><title>cloud</title><g id="レイヤー_2" data-name="レイヤー 2"><g id="レイヤー_1-2" data-name="レイヤー 1"><polygon class="cls-1" points="505.731 388.979 505.731 390.977 540.69 390.977 540.815 383.735 505.731 383.735 505.731 388.979"/><polygon class="cls-1" points="505.856 403.213 540.565 403.213 540.69 395.971 505.731 395.971 505.856 403.213"/><path class="cls-1" d="M462.657,515.014c-.25,3.5-.25,13.983-.25,16.48v8.116h30.339c0-8.24.125-19.477.125-25.1H464.9A14.524,14.524,0,0,1,462.657,515.014Z"/><path class="cls-1" d="M505.981,371.749c-.125,1.5-.125,4.121-.25,6.992h35.084v-7.116H506.73Z"/><path class="cls-1" d="M0,0V1000H1000V0ZM442.805,484.175c0-1.873,1.123-2.5,2.746-2.5h27.593v-21.1A206.922,206.922,0,0,1,448.8,462.7c-3.5.124-4.244-3.871-.374-4.5,18.229-2.622,34.21-6.617,45.322-12.236,2.872-1.623,3.371-1.623,5.868.375a30.711,30.711,0,0,1,5.744,6.617c1.5,2.622-.874,4.245-5.494,1.873a145.7,145.7,0,0,1-18.354,4.245c1.5.5,2.5,1.124,2.5,2,0,1.248-.874,2-2.5,2.621v17.98h13.235c2.622-3.871,5.868-8.241,7.741-8.241,2.5,0,10.987,7.491,11.112,10.488,0,1.748-2.372,2.747-6.492,2.747h-25.6V509.52h8.99c1.748-2.5,4.245-5.244,5.618-5.244,2.5,0,9.864,5.369,9.864,8.116,0,1.623-2,2.746-4.245,3.62-.25,8.74.125,27.843.125,32.338,0,3.87-2,4.744-5.494,4.744-2.872,0-3.746-2.247-3.746-4.245V544.6h-30.09v6.742c0,2.622-2,3.871-5.743,3.871a3.031,3.031,0,0,1-3.371-3.371c0-8.74.749-33.212-.5-44.823a1.492,1.492,0,0,1,1.748-1.623,33.558,33.558,0,0,1,10.238,4.12h8.24V486.672H445.551C443.928,486.672,442.805,486.172,442.805,484.175Zm75.037-33.711c-.25-1.748.125-2.372,2.247-2.372,9.864,0,13.984,1.373,13.984,3.87.125,2.5-3.122,3.746-6.243,4.246-.374,5.742-.374,74.787-.374,80.28,0,5.744.873,6.743,10.862,6.743,9.863,0,11.112-1.624,12.236-4.87,1-3,2.122-7.491,2.621-9.738.75-2.747,3.122-2.622,3.247.124.125,2,.249,5.744.375,8.615.249,4,2.621,4.37,2.621,6.867,0,2.622-3.246,7.492-20.85,7.492s-19.852-3.621-19.852-12.735C518.716,533.742,519.59,464.073,517.842,450.464Zm35.209-20.657c-3,1.123-5.369-1.124-8.99-4.5a68.4,68.4,0,0,0-8.115-6.493c-2.123-1.5-1.873-4.12,1.373-4.245,7.866,0,16.356,2.747,18.6,8.366C557.046,425.936,556.047,428.683,553.051,429.807Zm-3.5-56.684c-.375,8.864.125,30.839.125,35.583,0,3.871-2,4.745-5.369,4.745-2.872,0-3.746-2.248-3.746-4.245v-1H505.856v.874c0,2.747-1.873,4-5.369,4-2.122,0-3.121-1.248-3.121-3.5,0-8.74.749-33.71-.5-45.447a1.366,1.366,0,0,1,1.748-1.5,27.245,27.245,0,0,1,9.613,4h30.714c1.623-2.247,3.746-4.494,5-4.494,2.247,0,9.238,5.119,9.238,7.741C553.175,371.25,551.428,372.249,549.555,373.123ZM504.732,412.7c.874-1,1.748-1,3-.25,3.87,2.5,8.864,6.867,8.24,9.239-.624,2-4.12,1.249-7.242,0-6.242,4.12-16.106,7.991-26.468,9.239-3.122.375-4.246-2.871-1.124-4.245C491.747,422.94,498.739,419.194,504.732,412.7Zm-19.6-24.1c-3-.125-4-2.872-5.743-6.618a62.512,62.512,0,0,0-3.87-7.616c-1.249-2.122-.126-4.245,2.871-3.121,6.243,2.123,12.61,6.867,12.236,12.361C490.5,386.857,488.376,388.854,485.13,388.605ZM550.679,650.56H499.738c0,1.748-2.5,2.372-5.244,2.622a123.569,123.569,0,0,1-10.862,14.234,323.523,323.523,0,0,0,43.824-2.747,98.113,98.113,0,0,0-7.617-6.368c-1.872-1.373-.874-4.245,2.123-3.621,15.857,3.372,23.723,13.36,24.971,18.479,1,4-.749,6.617-4,7.366-2.5.749-4-.5-5.868-3.121-1.5-2.123-3.121-5.244-5.618-8.365-16.481,4.12-39.079,6.617-67.172,7.616-1.123,2.747-2.622,5.119-4.744,4.744-2.622-.5-3.621-6.492-3.5-13.359.125-1.124.624-1.374,1.623-1.374,6.368.375,12.361.625,17.979.625a60.991,60.991,0,0,0,8.74-16.731H446.675c-1.623,0-2.747-.5-2.747-2.5,0-1.873,1.124-2.5,2.747-2.5h92.018c2.5-3.621,5.743-7.741,7.491-7.741,2.372,0,11.112,7.117,11.112,9.989C557.3,649.562,555.423,650.56,550.679,650.56ZM476.89,616.85c2-3,4.369-5.993,5.868-5.993,2,0,8.989,6.243,8.989,8.615,0,1.748-1.872,2.372-5.244,2.372h-24.6c-1.623,0-2.746-.5-2.746-2.5,0-1.873,1.123-2.5,2.746-2.5Zm-14.608-10.738c0-1.872,1.123-2.5,2.747-2.5h11.362c2.122-3,4.369-5.993,5.868-5.993,2,0,8.989,6.243,9.114,8.615,0,1.748-2,2.372-5.369,2.372H465.029C463.405,608.609,462.282,608.11,462.282,606.112Zm62.8,24.971c2.5-3.621,5.619-7.616,7.367-7.616,2.372,0,10.862,7.117,10.862,9.988,0,1.623-1.873,2.622-6.492,2.622H458.161c-1.622,0-2.746-.5-2.746-2.5,0-1.873,1.124-2.5,2.746-2.5ZM511.474,616.85h14.983c2.122-3.122,4.62-6.368,6.118-6.368,2.122,0,9.364,6.368,9.364,8.99,0,1.623-2,2.372-5.494,2.372H511.474c-1.623,0-2.747-.5-2.747-2.5C508.727,617.474,509.851,616.85,511.474,616.85Zm-2.747-10.738c0-1.872,1.124-2.5,2.747-2.5h11.362c2.123-3,4.5-6.243,5.993-6.243,2.122,0,9.239,6.368,9.239,8.865,0,1.623-2,2.372-5.369,2.372H511.474C509.851,608.609,508.727,608.11,508.727,606.112ZM553.8,599.12c-3,2.622-6.243,5.619-8.365,7.616-2.5,1.873-4.87.5-3.621-2.5.624-2.373,2-6.618,3.121-10.239H504.982v5.119c0,11.862.375,20.476.375,23.972,0,2.622-1.873,4.5-5.994,4.5-2.5,0-3.37-1.373-3.37-3.745,0-4,.374-12.361.374-24.722V594H460.909a25.872,25.872,0,0,1-.126,3.122c-1,8.49-6.617,13.359-12.36,13.359a4.36,4.36,0,0,1-4.62-4.494c0-4.62,6.118-5.494,9.115-10.988,1.873-2.872,1.373-6.742,1.5-10.363,0-2.871,3.371-3.371,4.5-.624a48.107,48.107,0,0,1,1.373,4.994h36.083v-9.613H458.911c-1.624,0-2.747-.5-2.747-2.5,0-1.872,1.123-2.5,2.747-2.5h72.665c2.5-3.62,5.618-7.741,7.366-7.741,2.373,0,10.987,7.117,11.112,9.989,0,1.748-2,2.747-6.617,2.747H509.1a2.308,2.308,0,0,1,.25.874c0,1.5-1.373,2.5-4.37,3v5.743H544.81c1.748-1.748,3.621-3.246,4.745-3.246,2.372,0,9.988,7.616,9.988,10.488C559.543,598.746,556.547,598.746,553.8,599.12Zm0-239.357H490.749c-1.374,0-2.248-.374-2.622-1.5a9.115,9.115,0,0,1-4,.749H472.9v18.978c0,28.092.624,43.7.624,48.693,0,2.622-2.123,4.5-5.993,4.5-2.373,0-3.371-1.373-3.371-3.746,0-5.493.5-20.6.5-48.818-4.869,9.614-11.362,18.6-20.226,25.221-3,2.247-5.743-.25-3.247-3a97.224,97.224,0,0,0,21.476-41.826H446.425c-1.623,0-2.746-.5-2.746-2.5,0-1.872,1.123-2.5,2.746-2.5h18.229v-19.6a141.785,141.785,0,0,1-17.729,2.622c-3.621.25-4.5-3.246-.624-4.245,14.857-3.5,25.844-7.491,34.459-12.36,2.872-1.624,3.5-1.748,6.118.249a26.959,26.959,0,0,1,5.494,5.868c1.623,2.622-1,4.121-5.494,2-2.622,1-6.367,2-10.487,3.121a1.738,1.738,0,0,1,.624,1.249c0,1.373-1.374,2.247-4.12,2.747V354.02h.624c2.247-3.5,5.119-7.241,6.617-7.241,2,0,7.367,5.368,8.74,8.365a4.162,4.162,0,0,1,1.873-.375h27.468v-7.99H496.991c-1.623,0-2.746-.5-2.746-2.5,0-1.872,1.123-2.5,2.746-2.5h21.226c0-2.5,0-5.12-.126-7.492h-24.97c-1.623,0-2.747-.5-2.747-2.5,0-1.873,1.124-2.5,2.747-2.5h24.846c-.125-3.746-.25-6.867-.5-8.99-.124-1.123.624-1.747,1.748-1.747,2.123,0,12.361.5,12.361,3.371,0,2-2.123,2.872-5.369,3.62V329.3H540.69c2.123-3.121,4.745-6.368,6.243-6.368,2.122,0,9.738,6.368,9.738,8.99,0,1.623-1.748,2.372-5.868,2.372h-24.6v7.492h12.86c2-2.872,4.245-5.744,5.618-5.744,2.123,0,9.364,5.993,9.364,8.49,0,1.623-1.622,2.248-5.618,2.248H526.207v7.99h16.98c2.248-3.246,4.994-6.742,6.493-6.742,2.247,0,10.113,6.618,10.113,9.239C559.793,358.889,558.045,359.763,553.8,359.763Z"/></g></g></svg>