<svg xmlns="http://www.w3.org/2000/svg" viewBox="0 0 124 805.5"><defs><style>.cls-1{fill:none;stroke:#6fd2e2;stroke-miterlimit:10;}</style></defs><title>rain</title><g id="レイヤー_2" data-name="レイヤー 2"><g id="レイヤー_1-2" data-name="レイヤー 1"><line class="cls-1" x1="52.5" y1="45.105" x2="52.5" y2="88.476"/><line class="cls-1" x1="30.5" y1="79.802" x2="30.5" y2="121.438"/><line class="cls-1" x1="52.5" y1="128.377" x2="52.5" y2="159.604"/><line class="cls-1" x1="81.5" y1="159.604" x2="81.5" y2="187.361"/><line class="cls-1" x1="70.5" y1="83.271" x2="70.5" y2="121.438"/><line class="cls-1" x1="28.5" y1="178.687" x2="28.5" y2="206.444"/><line class="cls-1" x1="14.5" y1="137.051" x2="14.5" y2="168.278"/><line class="cls-1" x1="8.5" y1="22.553" x2="8.5" y2="67.658"/><line class="cls-1" x1="34.5" x2="34.5" y2="32.962"/><line class="cls-1" x1="85.5" y1="15.613" x2="85.5" y2="50.31"/><line class="cls-1" x1="98.5" y1="88.476" x2="98.5" y2="109.294"/><line class="cls-1" x1="106.5" y1="152.664" x2="106.5" y2="187.361"/><line class="cls-1" x1="67.5" y1="192.565" x2="67.5" y2="218.588"/><line class="cls-1" x1="46.5" y1="235.936" x2="46.5" y2="274.102"/><line class="cls-1" x1="23.5" y1="235.936" x2="23.5" y2="261.958"/><line class="cls-1" x1="8.5" y1="218.588" x2="8.5" y2="261.958"/><line class="cls-1" x1="88.5" y1="248.08" x2="88.5" y2="284.511"/><line class="cls-1" x1="70.5" y1="265.428" x2="70.5" y2="296.655"/><line class="cls-1" x1="123.5" y1="235.936" x2="123.5" y2="265.428"/><line class="cls-1" x1="106.5" y1="255.019" x2="106.5" y2="284.511"/><line class="cls-1" x1="92.5" y1="314.003" x2="92.5" y2="355.639"/><line class="cls-1" x1="67.5" y1="334.821" x2="67.5" y2="364.313"/><line class="cls-1" x1="46.5" y1="348.699" x2="46.5" y2="376.456"/><line class="cls-1" x1="30.5" y1="308.798" x2="30.5" y2="348.699"/><line class="cls-1" x1="42.5" y1="303.594" x2="42.5" y2="327.881"/><line class="cls-1" x1="0.5" y1="315.738" x2="0.5" y2="348.699"/><line class="cls-1" x1="12.5" y1="371.252" x2="12.5" y2="392.07"/><line class="cls-1" x1="52.5" y1="458.536" x2="52.5" y2="501.906"/><line class="cls-1" x1="30.5" y1="493.232" x2="30.5" y2="534.868"/><line class="cls-1" x1="52.5" y1="541.807" x2="52.5" y2="573.034"/><line class="cls-1" x1="81.5" y1="573.034" x2="81.5" y2="600.791"/><line class="cls-1" x1="70.5" y1="496.702" x2="70.5" y2="534.868"/><line class="cls-1" x1="28.5" y1="592.117" x2="28.5" y2="619.874"/><line class="cls-1" x1="14.5" y1="550.481" x2="14.5" y2="581.708"/><line class="cls-1" x1="8.5" y1="435.983" x2="8.5" y2="481.088"/><line class="cls-1" x1="34.5" y1="413.43" x2="34.5" y2="446.392"/><line class="cls-1" x1="85.5" y1="429.044" x2="85.5" y2="463.74"/><line class="cls-1" x1="88.5" y1="388.044" x2="88.5" y2="422.74"/><line class="cls-1" x1="114.5" y1="371.044" x2="114.5" y2="405.74"/><line class="cls-1" x1="98.5" y1="501.906" x2="98.5" y2="522.724"/><line class="cls-1" x1="106.5" y1="566.095" x2="106.5" y2="600.791"/><line class="cls-1" x1="67.5" y1="605.996" x2="67.5" y2="632.018"/><line class="cls-1" x1="46.5" y1="649.366" x2="46.5" y2="687.532"/><line class="cls-1" x1="23.5" y1="649.366" x2="23.5" y2="675.388"/><line class="cls-1" x1="8.5" y1="632.018" x2="8.5" y2="675.388"/><line class="cls-1" x1="88.5" y1="661.51" x2="88.5" y2="697.941"/><line class="cls-1" x1="70.5" y1="678.858" x2="70.5" y2="710.085"/><line class="cls-1" x1="123.5" y1="649.366" x2="123.5" y2="678.858"/><line class="cls-1" x1="106.5" y1="668.449" x2="106.5" y2="697.941"/><line class="cls-1" x1="92.5" y1="727.433" x2="92.5" y2="769.069"/><line class="cls-1" x1="67.5" y1="748.251" x2="67.5" y2="777.743"/><line class="cls-1" x1="46.5" y1="762.13" x2="46.5" y2="789.887"/><line class="cls-1" x1="30.5" y1="722.229" x2="30.5" y2="762.13"/><line class="cls-1" x1="42.5" y1="717.024" x2="42.5" y2="741.312"/><line class="cls-1" x1="0.5" y1="729.168" x2="0.5" y2="762.13"/><line class="cls-1" x1="12.5" y1="784.682" x2="12.5" y2="805.5"/></g></g></svg>